<svg version="1.1" id="Layer_1" xmlns="http://www.w3.org/2000/svg" xmlns:xlink="http://www.w3.org/1999/xlink" x="0px" y="0px"
	 width="100%" viewBox="0 0 512 512" enable-background="new 0 0 512 512" xml:space="preserve">
<path fill="#25C2A0" opacity="1.000000" stroke="none" 
	d="
M1.000003,476.000000 
	C1.000000,330.309265 1.000000,184.618515 1.279188,38.802441 
	C1.931415,38.351212 2.520482,38.092804 2.646416,37.689705 
	C8.136772,20.115799 19.520632,8.419061 37.143970,2.845957 
	C37.580269,2.707985 37.721275,1.636240 38.000000,1.000000 
	C183.690750,1.000000 329.381500,1.000000 475.197754,1.279320 
	C475.649200,1.931556 475.907623,2.519994 476.310852,2.646382 
	C493.871033,8.150723 505.592163,19.510046 511.154236,37.144463 
	C511.291718,37.580334 512.363770,37.721428 513.000000,38.000000 
	C513.000000,183.690750 513.000000,329.381500 512.721191,475.197449 
	C512.068909,475.648438 511.479645,475.906555 511.353180,476.309814 
	C505.847137,493.868164 494.498810,505.600098 476.855652,511.153870 
	C476.419891,511.291046 476.278625,512.363647 476.000000,513.000000 
	C330.309265,513.000000 184.618515,513.000000 38.802551,512.720947 
	C38.351273,512.068542 38.092018,511.476074 37.689568,511.353394 
	C20.014606,505.965393 8.441160,494.458099 2.846753,476.857178 
	C2.707786,476.419952 1.636480,476.279083 1.000003,476.000000 
M214.953232,376.516174 
	C229.546021,335.896118 245.055115,295.642487 262.810242,254.806946 
	C264.160431,257.527130 264.957428,258.908691 265.553589,260.372040 
	C268.440918,267.459534 271.298126,274.559570 274.122803,281.672333 
	C288.734894,318.467041 303.306274,355.278015 317.990479,392.043915 
	C319.146454,394.938202 320.761414,397.763214 322.685425,400.209564 
	C325.475372,403.756958 327.782196,403.583221 330.024872,399.732513 
	C331.683868,396.884033 332.993652,393.774506 334.055511,390.644379 
	C359.388184,315.969849 384.646454,241.270065 409.966370,166.591217 
	C417.406189,144.648239 428.355316,126.108406 453.936646,121.903816 
	C455.960968,121.571098 458.029877,120.353752 459.663086,119.033958 
	C463.241394,116.142410 462.560883,112.381096 458.127014,111.279549 
	C454.619537,110.408165 450.882385,110.108833 447.252319,110.140327 
	C423.769226,110.344032 400.287262,110.691696 376.805786,111.047592 
	C374.658600,111.080139 372.348511,111.083633 370.420685,111.861015 
	C368.483459,112.642189 366.929596,114.374115 365.207733,115.689407 
	C366.624786,117.382324 367.718658,119.695374 369.526855,120.637856 
	C373.187042,122.545609 377.178497,123.886971 381.135254,125.140213 
	C387.135559,127.040726 391.387665,131.055588 391.784698,137.080292 
	C392.246002,144.079712 392.044067,151.432678 390.373352,158.198425 
	C386.867554,172.395248 382.408356,186.370270 377.991913,200.326004 
	C364.743256,242.191147 351.349396,284.010437 337.927032,325.820282 
	C337.003601,328.696808 335.378571,331.348145 333.464935,335.408997 
	C331.891235,332.104279 330.872467,330.271484 330.118286,328.335602 
	C316.469666,293.302277 303.067932,258.170288 289.073395,223.275955 
	C285.711090,214.892395 285.652924,207.179474 288.988342,199.193756 
	C295.846924,182.772659 302.769562,166.377274 309.812805,150.034653 
	C316.028778,135.611588 326.199341,126.091049 342.373596,123.766182 
	C346.230286,123.211823 350.062103,121.525978 353.529572,119.661674 
	C355.059875,118.838867 356.483246,116.227318 356.392151,114.510796 
	C356.326141,113.266846 353.835968,111.505638 352.166290,111.128540 
	C348.796204,110.367401 345.246948,110.115990 341.774811,110.139107 
	C326.137238,110.243240 310.500061,110.477493 294.864594,110.766319 
	C292.058075,110.818161 289.166321,111.002052 286.479523,111.733337 
	C281.864410,112.989479 281.042511,116.700386 284.682709,119.854652 
	C286.924500,121.797195 289.660583,123.167068 292.163788,124.810707 
	C298.559143,129.010025 300.132172,132.031494 297.766266,139.037369 
	C292.394135,154.945465 286.606567,170.714600 280.851868,186.490616 
	C280.042450,188.709671 278.468872,190.649994 276.521667,193.953110 
	C274.625671,190.455734 273.168335,188.294373 272.217804,185.929352 
	C265.704376,169.723145 259.261932,153.488068 252.877777,137.230438 
	C251.030243,132.525604 252.265915,128.878189 256.678284,126.097145 
	C259.910797,124.059723 263.550140,122.630165 266.633728,120.409767 
	C268.177185,119.298393 269.877441,116.899277 269.677307,115.313408 
	C269.492828,113.851036 267.022858,111.939163 265.274109,111.567101 
	C261.738892,110.814964 258.011932,110.821091 254.360977,110.779381 
	C232.379105,110.528244 210.396606,110.303787 188.413712,110.189919 
	C183.770920,110.165863 179.080399,110.339790 174.503860,111.031288 
	C172.700455,111.303772 169.841629,113.189247 169.791336,114.434235 
	C169.717453,116.263611 171.286530,119.011917 172.941772,119.894722 
	C177.459290,122.304039 182.368698,123.991806 187.158234,125.875473 
	C204.561584,132.720001 218.556290,143.338165 225.809372,161.209091 
	C234.442673,182.480774 242.769775,203.877518 251.512543,225.103516 
	C254.493362,232.340393 254.550552,239.103790 251.585678,246.336288 
	C240.164017,274.198181 228.989212,302.161224 217.653229,330.058472 
	C216.910019,331.887451 215.587418,333.480957 213.880447,336.241455 
	C212.111053,332.898743 210.795670,330.822327 209.860245,328.586853 
	C186.357620,272.419861 162.740189,216.299622 139.620987,159.974976 
	C136.729736,152.931107 135.729935,144.837967 135.267059,137.145966 
	C134.791916,129.249908 137.780594,126.349579 145.353500,123.796814 
	C148.189728,122.840752 151.222214,122.137489 153.711182,120.589127 
	C155.565735,119.435432 156.689941,117.107750 158.139420,115.302902 
	C156.283493,113.921265 154.596497,111.795364 152.533279,111.327103 
	C149.182281,110.566589 145.585770,110.807602 142.091400,110.772186 
	C119.611641,110.544388 97.131752,110.289467 74.651283,110.201134 
	C68.845421,110.178322 63.010914,110.489922 57.247784,111.153549 
	C55.692627,111.332634 53.414421,113.199066 53.167122,114.592506 
	C52.904961,116.069702 54.240921,118.605385 55.626816,119.446518 
	C59.003643,121.496010 62.677094,123.326935 66.471786,124.371429 
	C83.776489,129.134567 93.889938,141.088043 100.248291,157.090546 
	C113.455994,190.331268 126.722626,223.548615 139.985443,256.767426 
	C158.923630,304.201111 177.865433,351.633362 196.882980,399.035248 
	C197.637192,400.915161 199.186554,402.476074 200.365433,404.185608 
	C202.132645,402.592560 204.620056,401.332428 205.537949,399.346771 
	C208.880386,392.116302 211.698151,384.643250 214.953232,376.516174 
z"/>
<path fill="#FDFEFE" opacity="1.000000" stroke="none" 
	d="
M214.833466,376.888916 
	C211.698151,384.643250 208.880386,392.116302 205.537949,399.346771 
	C204.620056,401.332428 202.132645,402.592560 200.365433,404.185608 
	C199.186554,402.476074 197.637192,400.915161 196.882980,399.035248 
	C177.865433,351.633362 158.923630,304.201111 139.985443,256.767426 
	C126.722626,223.548615 113.455994,190.331268 100.248291,157.090546 
	C93.889938,141.088043 83.776489,129.134567 66.471786,124.371429 
	C62.677094,123.326935 59.003643,121.496010 55.626816,119.446518 
	C54.240921,118.605385 52.904961,116.069702 53.167122,114.592506 
	C53.414421,113.199066 55.692627,111.332634 57.247784,111.153549 
	C63.010914,110.489922 68.845421,110.178322 74.651283,110.201134 
	C97.131752,110.289467 119.611641,110.544388 142.091400,110.772186 
	C145.585770,110.807602 149.182281,110.566589 152.533279,111.327103 
	C154.596497,111.795364 156.283493,113.921265 158.139420,115.302902 
	C156.689941,117.107750 155.565735,119.435432 153.711182,120.589127 
	C151.222214,122.137489 148.189728,122.840752 145.353500,123.796814 
	C137.780594,126.349579 134.791916,129.249908 135.267059,137.145966 
	C135.729935,144.837967 136.729736,152.931107 139.620987,159.974976 
	C162.740189,216.299622 186.357620,272.419861 209.860245,328.586853 
	C210.795670,330.822327 212.111053,332.898743 213.880447,336.241455 
	C215.587418,333.480957 216.910019,331.887451 217.653229,330.058472 
	C228.989212,302.161224 240.164017,274.198181 251.585678,246.336288 
	C254.550552,239.103790 254.493362,232.340393 251.512543,225.103516 
	C242.769775,203.877518 234.442673,182.480774 225.809372,161.209091 
	C218.556290,143.338165 204.561584,132.720001 187.158234,125.875473 
	C182.368698,123.991806 177.459290,122.304039 172.941772,119.894722 
	C171.286530,119.011917 169.717453,116.263611 169.791336,114.434235 
	C169.841629,113.189247 172.700455,111.303772 174.503860,111.031288 
	C179.080399,110.339790 183.770920,110.165863 188.413712,110.189919 
	C210.396606,110.303787 232.379105,110.528244 254.360977,110.779381 
	C258.011932,110.821091 261.738892,110.814964 265.274109,111.567101 
	C267.022858,111.939163 269.492828,113.851036 269.677307,115.313408 
	C269.877441,116.899277 268.177185,119.298393 266.633728,120.409767 
	C263.550140,122.630165 259.910797,124.059723 256.678284,126.097145 
	C252.265915,128.878189 251.030243,132.525604 252.877777,137.230438 
	C259.261932,153.488068 265.704376,169.723145 272.217804,185.929352 
	C273.168335,188.294373 274.625671,190.455734 276.521667,193.953110 
	C278.468872,190.649994 280.042450,188.709671 280.851868,186.490616 
	C286.606567,170.714600 292.394135,154.945465 297.766266,139.037369 
	C300.132172,132.031494 298.559143,129.010025 292.163788,124.810707 
	C289.660583,123.167068 286.924500,121.797195 284.682709,119.854652 
	C281.042511,116.700386 281.864410,112.989479 286.479523,111.733337 
	C289.166321,111.002052 292.058075,110.818161 294.864594,110.766319 
	C310.500061,110.477493 326.137238,110.243240 341.774811,110.139107 
	C345.246948,110.115990 348.796204,110.367401 352.166290,111.128540 
	C353.835968,111.505638 356.326141,113.266846 356.392151,114.510796 
	C356.483246,116.227318 355.059875,118.838867 353.529572,119.661674 
	C350.062103,121.525978 346.230286,123.211823 342.373596,123.766182 
	C326.199341,126.091049 316.028778,135.611588 309.812805,150.034653 
	C302.769562,166.377274 295.846924,182.772659 288.988342,199.193756 
	C285.652924,207.179474 285.711090,214.892395 289.073395,223.275955 
	C303.067932,258.170288 316.469666,293.302277 330.118286,328.335602 
	C330.872467,330.271484 331.891235,332.104279 333.464935,335.408997 
	C335.378571,331.348145 337.003601,328.696808 337.927032,325.820282 
	C351.349396,284.010437 364.743256,242.191147 377.991913,200.326004 
	C382.408356,186.370270 386.867554,172.395248 390.373352,158.198425 
	C392.044067,151.432678 392.246002,144.079712 391.784698,137.080292 
	C391.387665,131.055588 387.135559,127.040726 381.135254,125.140213 
	C377.178497,123.886971 373.187042,122.545609 369.526855,120.637856 
	C367.718658,119.695374 366.624786,117.382324 365.207733,115.689400 
	C366.929596,114.374115 368.483459,112.642189 370.420685,111.861015 
	C372.348511,111.083633 374.658600,111.080139 376.805786,111.047592 
	C400.287262,110.691696 423.769226,110.344032 447.252319,110.140327 
	C450.882385,110.108833 454.619537,110.408165 458.127014,111.279549 
	C462.560883,112.381096 463.241394,116.142410 459.663086,119.033958 
	C458.029877,120.353752 455.960968,121.571098 453.936646,121.903816 
	C428.355316,126.108406 417.406189,144.648239 409.966370,166.591217 
	C384.646454,241.270065 359.388184,315.969849 334.055511,390.644379 
	C332.993652,393.774506 331.683868,396.884033 330.024872,399.732513 
	C327.782196,403.583221 325.475372,403.756958 322.685425,400.209564 
	C320.761414,397.763214 319.146454,394.938202 317.990479,392.043915 
	C303.306274,355.278015 288.734894,318.467041 274.122803,281.672333 
	C271.298126,274.559570 268.440918,267.459534 265.553589,260.372040 
	C264.957428,258.908691 264.160431,257.527130 262.810242,254.806946 
	C245.055115,295.642487 229.546021,335.896118 214.833466,376.888916 
z"/>
</svg>